<?xml version="1.0" encoding="UTF-8"?>
<svg width="646px" height="706px" viewBox="0 0 646 706" version="1.1" xmlns="http://www.w3.org/2000/svg" xmlns:xlink="http://www.w3.org/1999/xlink">
    <title>logo</title>
    <defs>
        <rect id="path-1" x="0" y="0" width="646" height="706"></rect>
        <circle id="path-3" cx="323" cy="323" r="323"></circle>
        <linearGradient x1="49.9998922%" y1="50.0000294%" x2="59.4485019%" y2="91.4588206%" id="linearGradient-5">
            <stop stop-color="#FFFFFF" offset="0%"></stop>
            <stop stop-color="#F6F7F7" offset="100%"></stop>
        </linearGradient>
        <path d="M425.940273,134.21045 C445.248313,77.8008028 461.031357,61.4222235 473.289407,85.0747123 C490.026152,117.369055 491.316695,118.928224 495.514593,132.43969 C530.939517,144.330854 555.679357,173.097857 567.229521,186.25052 C567.238574,186.286828 567.316522,186.305959 567.325575,186.342268 C571.607125,191.273842 575.754878,196.273056 579.724049,201.471057 C632.491541,269.897907 646.854842,359.380479 621.200608,438.061481 C607.925987,476.234689 588.442731,508.056425 568.263209,532.086406 C543.896816,561.102155 528.9301,572.762318 514.634457,583.501091 L513.614363,584.266801 L513.614363,584.266801 L512.086956,585.412401 C510.221319,586.81193 508.358281,588.212434 506.47824,589.650817 C489.386954,602.727032 439.409439,632.20923 346.058351,651.744916 C223.701876,677.350591 100.330843,657.413007 -3.69827694,600.751558 C204.777771,710.777916 437.611378,545.835148 358.60925,386.361365 C337.956971,388.438168 298.346891,388.33845 234.084585,406.126287 C216.495193,410.957461 205.474156,404.668122 190.463674,389.629236 C182.174413,381.31328 172.707777,370.36418 160.208908,357.094428 C147.710039,343.824675 149.892601,315.717981 175.920748,297.012741 C200.985687,280.003563 220.005311,266.717028 236.128211,255.38254 C247.452186,247.348522 257.337383,240.311706 266.845301,233.59178 C300.431782,209.842933 329.499845,190.001659 401.805428,146.032097 C410.086176,141.019966 418.124765,137.134273 425.905846,134.226298 Z" id="path-6"></path>
        <filter x="-1.1%" y="-0.9%" width="102.2%" height="102.4%" filterUnits="objectBoundingBox" id="filter-7">
            <feOffset dx="0" dy="2" in="SourceAlpha" result="shadowOffsetOuter1"></feOffset>
            <feGaussianBlur stdDeviation="2" in="shadowOffsetOuter1" result="shadowBlurOuter1"></feGaussianBlur>
            <feColorMatrix values="0 0 0 0 0   0 0 0 0 0   0 0 0 0 0  0 0 0 0.0868999094 0" type="matrix" in="shadowBlurOuter1"></feColorMatrix>
        </filter>
        <linearGradient x1="60.2507792%" y1="72.3410511%" x2="56.5686084%" y2="29.5544927%" id="linearGradient-8">
            <stop stop-color="#C3C3C3" stop-opacity="0" offset="0%"></stop>
            <stop stop-color="#ECECEC" offset="100%"></stop>
        </linearGradient>
        <linearGradient x1="69.5947192%" y1="6.59826032%" x2="38.9273356%" y2="81.6903106%" id="linearGradient-9">
            <stop stop-color="#EBEBEB" offset="0%"></stop>
            <stop stop-color="#FFFFFF" offset="100%"></stop>
        </linearGradient>
        <linearGradient x1="59.1868767%" y1="6.59826032%" x2="50%" y2="35.9247726%" id="linearGradient-10">
            <stop stop-color="#EBEBEB" offset="0%"></stop>
            <stop stop-color="#FFFFFF" offset="100%"></stop>
        </linearGradient>
        <linearGradient x1="54.2340213%" y1="6.59826032%" x2="48.7719259%" y2="72.8793378%" id="linearGradient-11">
            <stop stop-color="#EBEBEB" offset="0%"></stop>
            <stop stop-color="#FFFFFF" offset="100%"></stop>
        </linearGradient>
        <linearGradient x1="53.660289%" y1="6.59826032%" x2="47.9316288%" y2="81.6903106%" id="linearGradient-12">
            <stop stop-color="#EBEBEB" offset="0%"></stop>
            <stop stop-color="#FFFFFF" offset="100%"></stop>
        </linearGradient>
        <linearGradient x1="53.8030063%" y1="6.59826032%" x2="47.8509816%" y2="81.6903106%" id="linearGradient-13">
            <stop stop-color="#EBEBEB" offset="0%"></stop>
            <stop stop-color="#FFFFFF" offset="100%"></stop>
        </linearGradient>
        <linearGradient x1="54.3695014%" y1="6.59826032%" x2="47.5308642%" y2="81.6903106%" id="linearGradient-14">
            <stop stop-color="#EBEBEB" offset="0%"></stop>
            <stop stop-color="#FFFFFF" offset="100%"></stop>
        </linearGradient>
        <linearGradient x1="55.5301502%" y1="6.59826032%" x2="46.875%" y2="81.6903106%" id="linearGradient-15">
            <stop stop-color="#EBEBEB" offset="0%"></stop>
            <stop stop-color="#FFFFFF" offset="100%"></stop>
        </linearGradient>
    </defs>
    <g id="Page-1" stroke="none" stroke-width="1" fill="none" fill-rule="evenodd">
        <g id="The-Horn" transform="translate(-477.000000, -325.000000)">
            <g id="logo" transform="translate(477.000000, 325.000000)">
                <mask id="mask-2" fill="white">
                    <use xlink:href="#path-1"></use>
                </mask>
                <g id="Rectangle"></g>
                <g id="Group" mask="url(#mask-2)">
                    <g transform="translate(308.817965, 324.786845) rotate(-14.000000) translate(-308.817965, -324.786845) translate(-14.182035, -57.206049)">
                        <g id="Group-2-Copy" transform="translate(0.000000, 117.985789)">
                            <mask id="mask-4" fill="white">
                                <use xlink:href="#path-3"></use>
                            </mask>
                            <use id="Oval" fill="#578B7B" xlink:href="#path-3"></use>
                            <g id="Combined-Shape" mask="url(#mask-4)" transform="translate(314.945349, 368.669907) rotate(14.000000) translate(-314.945349, -368.669907) ">
                                <use fill="black" fill-opacity="1" filter="url(#filter-7)" xlink:href="#path-6"></use>
                                <use fill="url(#linearGradient-5)" fill-rule="evenodd" xlink:href="#path-6"></use>
                            </g>
                            <path d="M492.235625,291.362555 C491.001487,307.749166 484.423789,323.471658 473.071772,335.849556 C456.451971,353.93384 428.876021,367.680587 389.525621,371.394925 C372.015209,373.032897 353.989033,372.416699 336.783004,374.120767 C413.27179,530.37329 194.505242,693.416295 -9.6484133,597.869108 C-9.95078246,597.828327 -10.2480961,597.790587 -10.5535008,597.754865 C68.9173179,638.241838 158.791314,657.823041 250.390788,652.285578 C342.940246,550.390639 415.522233,525.642061 464.897676,469.999655 C511.952305,416.975336 549.826462,304.880247 482.330395,249.652864 C492.412972,268.738167 492.381287,288.189624 492.235625,291.362555 Z" id="Neck" fill="url(#linearGradient-8)" mask="url(#mask-4)" transform="translate(254.186391, 451.429861) rotate(14.000000) translate(-254.186391, -451.429861) "></path>
                        </g>
                        <g id="Group-2" transform="translate(409.641273, 211.125862) scale(-1, 1) rotate(-6.000000) translate(-409.641273, -211.125862) translate(326.088531, 61.377959)">
                            <g id="Group-3" transform="translate(83.552741, 149.747903) rotate(-1.000000) translate(-83.552741, -149.747903) translate(2.576858, 1.390628)">
                                <path d="M143.231534,19.980439 C142.30748,19.8500901 140.55709,20.9059624 136.545233,27.8671111 C136.462591,27.8149849 136.394971,27.7106991 136.312349,27.6715878 C135.8015,27.4760312 135.260573,27.6064134 134.817345,28.1147939 C134.546901,28.4146029 128.386449,35.427811 123.946673,45.3087602 C122.406588,45.6607288 119.108595,46.7948238 115.329641,50.5230475 C110.025757,55.7763794 104.654176,65.0449628 101.318526,72.9706794 C101.273445,72.9706794 101.235885,72.9315681 101.198324,72.944583 C100.9504,73.0097908 95.0305256,74.4436947 88.5621263,83.6207736 C78.4651691,97.9341174 73.859995,110.604585 71.9742681,117.068967 C71.944208,117.095063 71.9066473,117.082015 71.8766064,117.108078 C71.3807785,117.590395 59.5860132,128.879185 54.3271332,137.143956 C49.7594621,144.313476 41.7886356,159.669677 37.5363742,173.655647 C37.5138339,173.681743 37.4762732,173.655647 37.453733,173.681743 C37.0405462,174.072823 27.153875,183.497618 12.5267496,212.345892 C-0.778158979,238.6259 -2.90409736,281.788519 3.41390726,291.943434 C5.56254168,295.411061 9.53670404,296.714549 14.1343775,296.714549 C24.208833,296.714549 37.272757,290.483434 40.7672658,287.068214 C41.2405535,286.598945 41.5936585,286.090531 41.8866434,285.569103 C47.7990369,283.196593 52.5996111,274.579888 57.370183,265.103067 C63.372776,253.188462 67.8502476,241.508458 69.6457751,233.074161 C69.7885172,232.39632 69.8936987,231.640224 70.028921,230.93632 C72.3804542,228.368288 81.0799926,217.822346 92.3633903,191.791622 C97.6297709,179.642416 100.161511,169.852571 101.431035,160.466854 C116.66667,137.49796 121.534558,120.748168 124.186692,101.572939 C135.125062,81.7326176 139.294624,67.5874659 140.594151,56.9786856 L140.616691,57.0177635 C144.418147,49.3917224 147.08509,41.922527 147.821303,37.0469598 L147.926484,37.1903569 C150.605928,31.219984 155.281022,18.8231984 161.951766,0 C155.281022,5.26378667 149.040945,11.923933 143.231534,19.980439 Z" id="Path" fill="#FFFFFF"></path>
                                <path d="M156.041117,9.45703742 C155.507089,11.6304265 149.136739,26.2866046 147.830494,29.5532419 C147.534739,28.353222 146.978433,24.1548263 146.58408,23.1948036 C148.013616,21.0481074 154.948496,10.7104431 156.041117,9.45703742 Z" id="Path" fill="url(#linearGradient-9)"></path>
                                <path d="M6.84449158,286.56145 C2.84583805,280.025647 3.77318966,240.809822 16.1250345,216.053346 C24.8343151,198.615725 31.8299989,188.432708 35.8723251,183.2301 C35.1007982,189.674547 34.1363943,198.92928 33.7876357,207.413008 C32.9048379,229.046648 35.3455218,249.831647 38.1794042,273.895424 L39.0102794,281.032571 C34.5962908,285.045542 11.6797101,294.457213 6.84259244,286.561785 L6.84449158,286.56145 Z" id="Path" fill="url(#linearGradient-10)"></path>
                                <path d="M55.0904765,260.096201 C51.1552736,267.964693 47.2496672,275.199068 42.9513374,277.800474 L42.313987,272.378006 C39.5423459,249.044199 37.1558394,228.880981 38.0008589,208.383144 C38.4158746,198.353549 39.7869159,186.925848 40.5427473,181.167106 C43.6999024,167.876145 52.3411467,150.482636 57.4991046,142.328227 C60.7674365,137.164509 67.0963554,130.395949 70.9277806,126.487875 C70.3200838,137.578971 69.2158478,160.446632 69.4381635,174.941223 C69.719786,192.981771 69.6308446,215.565835 66.5033619,230.36854 C64.8803515,238.017046 60.7227381,248.849061 55.0904765,260.095538 L55.0904765,260.096201 Z" id="Path" fill="url(#linearGradient-11)"></path>
                                <path d="M90.4189274,186.94726 C82.6373823,204.328387 76.085732,214.520376 72.1099103,219.87612 C73.7033479,205.45924 73.7265557,188.312072 73.5022202,173.959755 C73.2469541,158.242626 74.7166299,131.567738 75.2348847,122.725251 C75.7299318,120.554266 79.4505072,105.695229 92.1747998,88.2239134 C95.2611209,83.9860429 98.2082348,81.6457959 100.273373,80.3848181 C99.8324643,84.7528132 99.4070407,91.6038265 99.6004259,101.028712 C99.6623068,104.122717 99.8015338,107.242747 99.9562459,110.570743 C100.366204,119.631879 100.822578,129.888763 100.103196,146.606287 C99.6468217,157.084151 98.5252234,168.836304 90.4188878,186.944931 L90.4189274,186.94726 Z" id="Path" fill="url(#linearGradient-12)"></path>
                                <path d="M103.239127,148.946746 C103.275746,148.233441 103.327009,147.520104 103.356315,146.793817 C104.059444,129.6352 103.598023,118.663048 103.217152,109.870252 C103.077989,106.64086 102.953469,103.631993 102.887563,100.622926 C102.704449,91.1033468 103.151227,84.501861 103.554073,80.6630852 C105.993085,73.0369962 111.984304,61.5332854 117.689959,55.7747897 C119.71872,53.7256165 121.571792,52.6102732 122.941486,52.0137058 C122.633872,55.800687 122.282308,61.2610318 122.289621,65.8651059 L122.304264,68.8091634 C122.362858,76.0202316 122.450759,86.9143599 120.941957,98.4054541 C118.700758,115.473099 114.906676,129.687725 103.23924,148.948339 L103.239127,148.946746 Z" id="Path" fill="url(#linearGradient-13)"></path>
                                <path d="M125.305746,87.4769001 C125.80678,79.528181 125.761906,72.4205996 125.724518,67.5659949 L125.709548,64.6919748 C125.694596,58.6721059 126.412492,50.7621626 126.651791,48.289456 C129.358927,42.1141523 132.955871,36.9745285 135.057104,34.2817606 C135.917085,37.2205066 136.80697,40.6771257 136.949056,42.5672001 C137.644515,51.5128234 136.792018,64.5753158 125.305746,87.4775961 L125.305746,87.4769001 Z" id="Path" fill="url(#linearGradient-14)"></path>
                                <path d="M141.444885,44.9209277 C141.412093,44.201196 141.379318,43.4951248 141.333437,42.8162355 C141.136771,39.8562492 140.251801,35.7012982 139.491302,32.5513856 C140.828608,29.7407611 142.23143,27.1473145 143.024704,26.0068529 C143.522921,27.3374842 144.263669,30.1752211 144.217787,33.8006447 C144.198119,35.0226523 143.42458,39.0416933 141.444935,44.9209277 L141.444885,44.9209277 Z" id="Path" fill="url(#linearGradient-15)"></path>
                            </g>
                        </g>
                    </g>
                </g>
            </g>
        </g>
    </g>
</svg>