<?xml version="1.0" encoding="UTF-8"?>
<svg width="670px" height="528px" viewBox="0 0 670 528" version="1.1" xmlns="http://www.w3.org/2000/svg" xmlns:xlink="http://www.w3.org/1999/xlink">
    <title>logo</title>
    <defs>
        <linearGradient x1="99.4236233%" y1="50%" x2="-2.22044605e-14%" y2="50%" id="linearGradient-1">
            <stop stop-color="#B4836A" offset="0%"></stop>
            <stop stop-color="#C48B6E" offset="30.294888%"></stop>
            <stop stop-color="#D7A68D" offset="78.5901373%"></stop>
            <stop stop-color="#D8A78E" offset="100%"></stop>
        </linearGradient>
        <path d="M127.851315,407.858346 C128.754244,408.796001 129.693903,409.700059 130.599893,410.564411 C134.223854,414.189807 137.933517,417.726628 141.704395,421.193202 C270.434584,536.62859 465.204113,460.446426 437.302063,332.74517 C427.968761,307.90453 389.921253,299.255912 323.159541,306.799314 C288.874749,311.217796 232.625817,302.612955 154.412744,280.984791 C111.167016,273.248376 69.4608584,259.840217 32,235 C33.0069959,239.236245 34.0874504,243.402242 35.3025792,247.464395 C52.4919068,309.294637 84.8810566,363.974879 127.851315,407.858346 Z" id="path-2"></path>
        <filter x="-3.8%" y="-6.0%" width="107.6%" height="112.8%" filterUnits="objectBoundingBox" id="filter-3">
            <feOffset dx="0" dy="1" in="SourceAlpha" result="shadowOffsetOuter1"></feOffset>
            <feGaussianBlur stdDeviation="5" in="shadowOffsetOuter1" result="shadowBlurOuter1"></feGaussianBlur>
            <feColorMatrix values="0 0 0 0 0   0 0 0 0 0   0 0 0 0 0  0 0 0 0.449355332 0" type="matrix" in="shadowBlurOuter1"></feColorMatrix>
        </filter>
        <radialGradient cx="42.3988458%" cy="0%" fx="42.3988458%" fy="0%" r="63.9256718%" gradientTransform="translate(0.423988,0.000000),scale(0.602978,1.000000),rotate(90.000000),scale(1.000000,1.822289),translate(-0.423988,-0.000000)" id="radialGradient-4">
            <stop stop-color="#FFFFFF" offset="0%"></stop>
            <stop stop-color="#FFFFFF" stop-opacity="0" offset="100%"></stop>
        </radialGradient>
        <linearGradient x1="100%" y1="50%" x2="-2.22044605e-14%" y2="50%" id="linearGradient-5">
            <stop stop-color="#B38269" offset="0%"></stop>
            <stop stop-color="#B4836A" offset="30.9932255%"></stop>
            <stop stop-color="#E1B097" offset="78.5901373%"></stop>
            <stop stop-color="#D8A78E" offset="100%"></stop>
        </linearGradient>
        <path d="M319.373658,312.498474 C318.730839,311.541857 343.315368,304.791786 393.127248,292.248262 C435.596439,275.132882 432.35637,198.022265 457.17003,189.718464 C395.489837,210.173726 222.065784,195.35524 166.338794,103.447328 C143.227793,102.03662 120.171716,99.1092502 97.3383878,94.7106272 C64.2341819,88.3018969 31.663964,78.7417788 0,66 C7.88776591,150.482019 56.7858118,229.36359 132.4748,275.132882 C192.897833,311.672029 261.233043,319.951612 319.373658,312.498474 Z M458,189.439955 C457.810816,189.503528 457.624683,189.5671 457.441601,189.627646 C457.624683,189.5671 457.813867,189.503528 458,189.439955 Z M457.441601,189.627646 C457.423293,189.6337 457.404985,189.639755 457.386677,189.645809 C457.401933,189.642782 457.420242,189.6337 457.441601,189.627646 Z M457.380574,189.648837 C457.310393,189.670027 457.240211,189.694246 457.17003,189.718464 C457.240211,189.694246 457.310393,189.673055 457.380574,189.648837 Z" id="path-6"></path>
        <filter x="-3.4%" y="-5.8%" width="106.8%" height="112.4%" filterUnits="objectBoundingBox" id="filter-7">
            <feOffset dx="0" dy="1" in="SourceAlpha" result="shadowOffsetOuter1"></feOffset>
            <feGaussianBlur stdDeviation="5" in="shadowOffsetOuter1" result="shadowBlurOuter1"></feGaussianBlur>
            <feColorMatrix values="0 0 0 0 0   0 0 0 0 0   0 0 0 0 0  0 0 0 0.34689139 0" type="matrix" in="shadowBlurOuter1"></feColorMatrix>
        </filter>
        <radialGradient cx="42.3988458%" cy="0%" fx="42.3988458%" fy="0%" r="63.9256718%" gradientTransform="translate(0.423988,0.000000),scale(0.703390,1.000000),rotate(90.000000),scale(1.000000,1.822289),translate(-0.423988,-0.000000)" id="radialGradient-8">
            <stop stop-color="#FFFFFF" offset="0%"></stop>
            <stop stop-color="#FFFFFF" stop-opacity="0" offset="100%"></stop>
        </radialGradient>
        <linearGradient x1="100%" y1="50%" x2="-2.22044605e-14%" y2="50%" id="linearGradient-9">
            <stop stop-color="#B38269" offset="2.12521853%"></stop>
            <stop stop-color="#B07F66" offset="30.294888%"></stop>
            <stop stop-color="#D4A38A" offset="78.5901373%"></stop>
            <stop stop-color="#D9A88F" offset="100%"></stop>
        </linearGradient>
        <path d="M508.832206,173.708489 C555.909425,165.184967 592.466715,186.664695 618.504076,238.147676 C644.191888,287.25142 642.246807,367.638034 610.199402,419 C649.471718,360.418921 659.787459,288.577947 640.672372,225.307946 C602.332498,98.4573789 478.1469,60.982539 401.921186,60.623258 C372.917934,60.4557965 344.847125,63.9846671 317.291293,67.5165825 C266.531032,74.0232231 217.532052,80.526819 167.731658,63.8963692 C161.838373,61.9538158 155.92071,59.6641603 150,57 C167.731658,191.100128 386.413984,214.209815 456.981047,190.442461 C466.299385,187.304334 483.583105,181.726343 508.832206,173.708489 Z" id="path-10"></path>
        <filter x="-3.1%" y="-4.0%" width="106.2%" height="108.6%" filterUnits="objectBoundingBox" id="filter-11">
            <feOffset dx="0" dy="1" in="SourceAlpha" result="shadowOffsetOuter1"></feOffset>
            <feGaussianBlur stdDeviation="5" in="shadowOffsetOuter1" result="shadowBlurOuter1"></feGaussianBlur>
            <feColorMatrix values="0 0 0 0 0   0 0 0 0 0   0 0 0 0 0  0 0 0 0.197067482 0" type="matrix" in="shadowBlurOuter1"></feColorMatrix>
        </filter>
        <radialGradient cx="42.3988458%" cy="0%" fx="42.3988458%" fy="0%" r="63.9256718%" gradientTransform="translate(0.423988,0.000000),scale(0.439320,1.000000),rotate(90.000000),scale(1.000000,1.822289),translate(-0.423988,-0.000000)" id="radialGradient-12">
            <stop stop-color="#FFFFFF" offset="0%"></stop>
            <stop stop-color="#FFFFFF" stop-opacity="0" offset="100%"></stop>
        </radialGradient>
        <linearGradient x1="49.9998889%" y1="50%" x2="49.9998889%" y2="100.165157%" id="linearGradient-13">
            <stop stop-color="#FFFFFF" offset="0%"></stop>
            <stop stop-color="#CDD8FF" offset="100%"></stop>
        </linearGradient>
        <path d="M363.897649,0 L513.324661,168.480049 C518.772237,166.983135 523.971404,165.983191 528.930697,165.420308 C552.64396,128.757269 566.760703,119.914851 571.280474,138.893133 C577.451482,164.804877 578.092265,166.141426 578.681388,176.485626 C601.746128,191.211261 614.228478,216.034204 620.105264,227.425944 C620.105264,227.453346 620.157261,227.480749 620.157261,227.508152 C622.325836,231.770797 624.387359,236.0578 626.286774,240.454414 C651.658187,298.423342 646.011303,364.549718 613.843594,415.911547 C597.648562,440.683763 578.167215,459.843023 559.571523,473.342508 C538.186811,488.866673 525.648943,494.715778 514.085265,499.641316 L513.219693,500.009137 C513.075694,500.070197 512.931817,500.131147 512.788046,500.192005 L511.92657,500.556168 L511.92657,500.556168 L511.066902,500.91892 C510.923733,500.979306 510.780609,501.039668 510.637515,501.100023 L509.350037,501.643468 C509.063922,501.764393 508.777738,501.885494 508.491365,502.006906 L507.631548,502.372213 C507.488109,502.433299 507.344591,502.494496 507.20098,502.555824 L506.338063,502.925473 C506.049967,503.049298 505.761373,503.173776 505.472157,503.299044 C491.011376,509.562449 450.276829,521.656996 380.485342,519 C289.008741,515.517441 204.879682,479.494415 141,420.803882 C269.640253,535.916611 464.301235,459.965411 436.418679,332.655426 C421.376291,330.472343 393.249044,323.384173 344.436219,324.638609 C331.0822,324.955263 324.365428,318.533892 316.364027,305.188769 C311.947352,297.811348 307.160581,288.354365 300.630386,276.711255 C294.100191,265.068144 300.630386,245.483616 322.438485,236.803763 C343.261701,229.158404 359.129922,223.08718 372.594053,217.889798 C382.0636,214.187386 390.334161,210.938642 398.280506,207.848224 C401.087725,206.755769 403.855916,205.683074 406.623978,204.61868 L408.285111,203.980947 C408.562068,203.874794 408.839101,203.768701 409.11625,203.662656 L410.780838,203.02688 C426.117184,197.180024 442.042542,191.411506 465.104422,183.79234 L363.897649,0 Z" id="path-14"></path>
        <filter x="-1.4%" y="-1.0%" width="102.8%" height="102.7%" filterUnits="objectBoundingBox" id="filter-15">
            <feOffset dx="0" dy="2" in="SourceAlpha" result="shadowOffsetOuter1"></feOffset>
            <feGaussianBlur stdDeviation="2" in="shadowOffsetOuter1" result="shadowBlurOuter1"></feGaussianBlur>
            <feColorMatrix values="0 0 0 0 0   0 0 0 0 0   0 0 0 0 0  0 0 0 0.0868999094 0" type="matrix" in="shadowBlurOuter1"></feColorMatrix>
        </filter>
        <linearGradient x1="54.5953393%" y1="63.7690966%" x2="61.2704353%" y2="39.6182838%" id="linearGradient-16">
            <stop stop-color="#C5CFF4" stop-opacity="0" offset="0%"></stop>
            <stop stop-color="#C6CEEA" offset="100%"></stop>
        </linearGradient>
    </defs>
    <g id="Page-1" stroke="none" stroke-width="1" fill="none" fill-rule="evenodd">
        <g id="Artboard-Copy-7" transform="translate(-675.000000, -559.000000)">
            <g id="Logo-Copy" transform="translate(685.000000, 561.000000)">
                <g id="Bottom">
                    <use fill="black" fill-opacity="1" filter="url(#filter-3)" xlink:href="#path-2"></use>
                    <use fill="url(#linearGradient-1)" fill-rule="evenodd" xlink:href="#path-2"></use>
                </g>
                <path d="M434.580517,387.445131 C442.05466,323.522143 347.175495,377.341579 347.175495,377.341579 C222.973986,413.699706 97.7187044,346.481152 32,235 C33.0049012,239.236284 34.0831082,243.402319 35.2987637,247.464509 C52.4492808,309.295316 84.7741111,363.976057 127.648877,407.859926 C128.552982,408.797589 129.490686,409.698601 130.391738,410.566016 C134.011214,414.191444 137.71316,417.728299 141.476195,421.197958 C250.201004,518.895153 406.110353,479.32698 434.580517,387.445131" id="Bottom-Flair" fill="url(#radialGradient-4)"></path>
                <g id="Middle">
                    <use fill="black" fill-opacity="1" filter="url(#filter-7)" xlink:href="#path-6"></use>
                    <use fill="url(#linearGradient-5)" fill-rule="evenodd" xlink:href="#path-6"></use>
                </g>
                <path d="M323.337499,238.97472 C334.96863,234.679441 345.015089,230.889669 354,227.455283 C352.513222,219.164965 347.652131,211.861152 340.579228,207.299332 C333.506326,202.734449 324.864046,201.325156 316.705123,203.383949 C192.926268,234.599785 61.5513844,181.120843 0,66 C7.90806803,151.495056 56.9319714,228.328432 132.818832,274.651275 C193.397387,311.62683 261.908483,320.015186 320.198745,312.466278 C319.228974,311.014094 318.253085,309.454681 317.258841,307.784975 C312.844395,300.361678 308.053666,290.845888 301.522244,279.130375 L323.337499,238.97472 Z" id="Middle-Flair" fill="url(#radialGradient-8)"></path>
                <g id="Top">
                    <use fill="black" fill-opacity="1" filter="url(#filter-11)" xlink:href="#path-10"></use>
                    <use fill="url(#linearGradient-9)" fill-rule="evenodd" xlink:href="#path-10"></use>
                </g>
                <path d="M432.977388,126.675832 C415.842052,95.7814806 395.46597,110.014766 395.46597,110.014766 C309.584646,139.517916 214.265144,120.767905 150,57 C167.773711,190.491603 386.974663,210.499454 457.709083,186.839952 C460.048774,186.05797 462.49537,185.245678 465,184.421263 L432.977388,126.675832 Z" id="Top-Flair" fill="url(#radialGradient-12)"></path>
                <g id="Combined-Shape">
                    <use fill="black" fill-opacity="1" filter="url(#filter-15)" xlink:href="#path-14"></use>
                    <use fill="url(#linearGradient-13)" fill-rule="evenodd" xlink:href="#path-14"></use>
                </g>
                <path d="M561.536856,301.391599 C557.756891,312.816454 550.297719,322.822756 540.038685,329.606741 C525.025689,339.512154 502.996246,344.394544 474.377817,340.062455 C461.645624,338.124173 448.946303,334.492819 436.418679,332.655426 C463.08606,457.231283 278.756978,534.324727 150.62287,430.265916 C150.415247,430.183371 150.210677,430.103883 150,430.024395 C199.295267,472.871422 259.686167,502.706893 325.753122,515 C409.565762,458.994672 465.523294,454.2682 510.464578,423.478874 C553.29299,394.138673 600.063191,321.199369 561.887984,270 C565.671003,285.347276 562.202472,299.162882 561.536856,301.391599 Z" id="Neck" fill="url(#linearGradient-16)"></path>
            </g>
        </g>
    </g>
</svg>